<svg width="24" height="24" viewBox="0 0 24 24" fill="none" xmlns="http://www.w3.org/2000/svg">
<path d="M0 0V8H2V7H8C8.26522 7 8.51957 7.10536 8.70711 7.29289C8.89464 7.48043 9 7.73478 9 8V18C9 20.75 11.25 23 14 23H22V24H24V16H22V17H16C15.7348 17 15.4804 16.8946 15.2929 16.7071C15.1054 16.5196 15 16.2652 15 16V6C15 3.25 12.75 1 10 1H2V0H0ZM2 3H10C11.669 3 13 4.331 13 6V11H11V7C11 5.907 10.093 5 9 5H2V3ZM11 13H13V17C13 18.093 13.907 19 15 19H22V21H14C12.331 21 11 19.669 11 18V13Z" fill="#036FC7"/>
<path d="M8 11H16V14H8V11Z" fill="#036FC7"/>
</svg>
